<svg xmlns="http://www.w3.org/2000/svg" viewBox="0 0 58.65 27.12"><defs><style>.cls-1,.cls-2{fill:#fff;}.cls-2{font-size:5px;font-family:Comfortaa-Bold, Comfortaa;font-weight:700;letter-spacing:-0.03em;}.cls-3{letter-spacing:0em;}</style></defs><title>Asset 2150</title><g id="Layer_2" data-name="Layer 2"><g id="Foreground"><polygon class="cls-1" points="49.86 24.3 50.63 24.3 50.63 21.42 49.86 21 49.86 24.3"/><path class="cls-1" d="M31.26,20H29.8V24.3h1.46a2,2,0,0,0,2.23-2.15A2,2,0,0,0,31.26,20Zm0,3.61h-.68V20.7h.68a1.28,1.28,0,0,1,1.44,1.45A1.27,1.27,0,0,1,31.26,23.59Z"/><polygon class="cls-1" points="58.14 22.48 58.29 21.81 56.77 21.81 57.13 22.48 58.14 22.48"/><path class="cls-1" d="M17.92,22.86c0,.69-.24.85-.69.85a1,1,0,0,1-.74-.31l-.38.55a1.6,1.6,0,0,0,1.23.45c.91,0,1.36-.42,1.35-1.29V20h-.77Z"/><polygon class="cls-1" points="22.14 24.3 22.96 24.3 24.24 21.45 24.91 22.94 24.08 22.94 24.36 23.53 25.17 23.53 25.52 24.3 26.34 24.3 24.24 19.95 22.14 24.3"/><rect class="cls-1" x="44.16" y="19.98" width="0.77" height="4.32"/><polygon class="cls-1" points="40.42 19.98 37.36 19.98 37.36 24.3 40.28 24.3 40.42 23.6 38.13 23.6 38.13 20.69 40.28 20.69 40.42 19.98"/><rect class="cls-1" x="48.59" y="19.98" width="3.32" height="0.67"/><polygon class="cls-1" points="56.33 20.69 58.48 20.69 58.62 19.98 55.56 19.98 55.56 24.3 58.48 24.3 58.62 23.6 56.33 23.6 56.33 20.69"/><polygon class="cls-1" points="39.94 22.48 40.09 21.81 38.57 21.81 38.93 22.48 39.94 22.48"/><path class="cls-1" d="M15.8,21.1l-1.31-.54L13.4,21l.45-1.09-.54-1.31L12,19.16l-.45,1.09-.45-1.09-1.31-.54-.54,1.31L9.7,21,8.6,20.56,7.3,21.1l.54,1.31,1.09.45-1.09.45L7.3,24.63l1.31.54,1.09-.45-.45,1.09.54,1.31,1.31-.54.45-1.09L12,26.57l1.31.54.54-1.31-.45-1.09,1.09.45,1.31-.54-.54-1.31-1.09-.45,1.09-.45Zm-1.31-.39,1,.43-1,.43-1-.43Zm-.09,1-.45,1.09-.09,0-1-.42.41-1,0-.09Zm-2.67,1.18,1-.43,1,.43-1,.43Zm1.42,1.6-1-.43-.43-1,1,.43Zm-1.47-1.72.43-1,1-.43-.43,1Zm2-2.82-.43,1-.43-1,.43-1Zm-1.6-.66,1-.43-.43,1-1,.43Zm.62.75.45,1.09-.09,0-1,.42-.41-1,0-.09ZM12,21.65l-.43,1-.43-1,.43-1Zm-1.6,1.78,1-.43L11,24l-1,.43Zm-.05-.13-1-.43,1-.43,1,.43Zm.05-1-.43-1,1,.43.43,1Zm1-1.75-.42,1-1-.42-.09,0L10.37,20l1.09.45ZM11,19.26l.43,1-1-.43-.43-1Zm-1.6.66.43-1,.43,1-.43,1Zm.39,1.31,0,.09.41,1-1,.42-.09,0-.45-1.09ZM8.6,20.71l1,.43-1,.43-1-.43Zm-.66,1.6-.43-1,1,.43.43,1Zm0,1.12L9,23l-.43,1-1,.43ZM8.6,25l-1-.43,1-.43,1,.43Zm.09-1L9.15,23l.09,0,1,.41-.41,1,0,.09Zm.7,1.76.43-1,.43,1-.43,1Zm1.6.66-1,.43.43-1,1-.43Zm-.62-.75-.45-1.09.09,0,1-.42.42,1,0,.09Zm1.18-.59-.43-1,.43-1,.43,1Zm.13.05.41-1,1,.42.09,0-.45,1.09-1.09-.45Zm.43,1.29-.43-1,1,.43.43,1Zm1.6-.66-.43,1-.43-1,.43-1Zm-.39-1.31,0-.09-.42-1,1-.41.09,0L14.4,24Zm1.18.52-1-.43,1-.43,1,.43Zm.66-1.6.43,1-1-.43-.43-1Zm-1-.68.43-1,1-.43-.43,1Z"/><path class="cls-1" d="M36,.15H30.16V17.41H36c5,0,8.91-2.81,8.91-8.61C44.9,3.93,41.94.15,36,.15Zm0,14.42H33.26V3H36c3,0,5.76,1.21,5.76,5.82S39,14.57,36,14.57Z"/><path class="cls-1" d="M7.62,11.74c0,2.73-1,3.35-2.76,3.35a4,4,0,0,1-3-1.24L.37,16A6.45,6.45,0,0,0,5.3,17.79c3.66,0,5.44-1.67,5.4-5.1V.38H7.62Z"/><polygon class="cls-1" points="11.52 17.42 14.81 17.42 19.93 6.03 22.59 11.97 19.28 11.97 20.41 14.33 23.64 14.33 25.03 17.42 28.33 17.42 19.93 0 11.52 17.42"/><polygon class="cls-1" points="58.65 0.14 46.41 0.14 46.41 17.41 58.07 17.41 58.64 14.59 49.48 14.59 49.48 2.97 58.07 2.97 58.65 0.14"/><polygon class="cls-1" points="56.72 10.11 57.3 7.45 51.24 7.45 52.68 10.11 56.72 10.11"/><text class="cls-2" transform="translate(0 23.31)">b<tspan class="cls-3" x="3.37" y="0">y</tspan></text></g></g></svg>